<?xml version="1.0" encoding="UTF-8" ?>
<!DOCTYPE svg PUBLIC "-//W3C//DTD SVG 1.1//EN" "http://www.w3.org/Graphics/SVG/1.1/DTD/svg11.dtd">
<svg width="258pt" height="238pt" viewBox="0 0 258 238" version="1.1" xmlns="http://www.w3.org/2000/svg">
<g id="#ffffffff">
<path fill="#ffffff" opacity="1.00" d=" M 122.05 13.86 C 132.25 6.11 145.49 4.16 157.96 3.98 C 170.09 4.13 182.91 5.90 193.06 13.04 C 202.48 19.44 208.15 30.68 208.26 42.00 C 208.26 50.74 208.23 59.48 208.27 68.23 C 210.36 71.08 212.19 74.36 212.24 77.99 C 212.27 84.39 212.24 90.79 212.26 97.19 C 212.14 103.38 207.92 108.76 202.55 111.49 C 199.16 121.50 194.08 130.94 187.54 139.24 C 187.48 144.21 187.49 149.17 187.50 154.14 C 187.51 158.07 190.16 161.60 193.62 163.28 C 204.66 168.87 215.76 174.36 226.82 179.91 C 231.26 182.16 235.89 184.16 239.78 187.32 C 248.49 194.09 253.75 204.94 253.98 215.94 C 254.04 221.96 253.98 227.98 254.00 234.00 C 190.08 234.00 126.17 234.01 62.25 234.00 C 62.67 224.10 61.02 213.88 64.14 204.28 C 67.35 194.27 74.95 186.00 84.41 181.52 C 95.86 175.26 107.31 168.99 118.76 162.73 C 122.12 160.97 124.55 157.47 124.70 153.63 C 124.84 148.90 124.71 144.16 124.74 139.43 C 118.39 130.82 113.44 121.12 110.59 110.79 C 110.30 109.16 108.94 108.15 107.93 106.97 C 105.25 104.03 103.85 99.99 103.99 96.02 C 104.03 89.99 103.96 83.95 104.01 77.92 C 104.08 74.32 105.91 71.06 107.98 68.23 C 108.02 59.48 107.99 50.72 107.99 41.97 C 108.12 31.14 113.29 20.34 122.05 13.86 Z" />
<path fill="#ffffff" opacity="1.00" d=" M 62.79 36.71 C 75.45 32.10 89.70 32.14 102.48 36.29 C 101.45 46.31 102.28 56.42 101.97 66.48 C 99.54 70.19 97.88 74.54 97.99 79.03 C 98.02 85.07 97.97 91.12 98.01 97.16 C 98.11 102.89 100.87 108.24 104.74 112.35 C 107.86 122.66 112.50 132.51 118.77 141.28 C 118.71 145.19 118.80 149.10 118.74 153.00 C 118.83 154.80 117.80 156.57 116.19 157.39 C 103.56 164.35 90.87 171.20 78.25 178.18 C 65.63 185.33 57.15 199.10 56.37 213.57 C 56.09 220.37 56.33 227.19 56.25 234.00 C 38.83 234.00 21.42 234.00 4.00 234.00 C 4.39 224.48 2.67 214.51 6.42 205.45 C 8.88 199.38 13.14 193.99 18.63 190.39 C 28.84 184.03 39.00 177.57 49.21 171.19 C 52.10 169.62 53.90 166.35 53.76 163.07 C 53.76 159.46 53.73 155.84 53.76 152.23 C 46.84 144.78 41.48 135.87 38.55 126.12 C 35.64 123.14 33.14 119.33 33.24 115.00 C 33.27 109.66 33.22 104.32 33.26 98.98 C 33.24 95.55 35.17 92.57 37.23 89.98 C 37.69 80.73 36.00 71.16 39.13 62.22 C 42.62 50.72 51.41 40.83 62.79 36.71 Z" />
</g>
</svg>
