<?xml version="1.0" encoding="UTF-8" ?>
<!DOCTYPE svg PUBLIC "-//W3C//DTD SVG 1.1//EN" "http://www.w3.org/Graphics/SVG/1.1/DTD/svg11.dtd">
<svg width="258pt" height="238pt" viewBox="0 0 258 238" version="1.1" xmlns="http://www.w3.org/2000/svg">
<g id="#6b6b6bff">
<path fill="#6b6b6b" opacity="1.00" d=" M 122.00 13.90 C 132.23 6.12 145.52 4.15 158.03 3.99 C 170.12 4.13 182.89 5.91 193.02 13.01 C 201.91 19.04 207.49 29.38 208.18 40.05 C 208.49 49.39 207.95 58.76 208.41 68.08 C 210.04 71.22 212.33 74.26 212.22 77.98 C 212.30 84.33 212.24 90.69 212.25 97.04 C 212.23 103.31 207.92 108.67 202.56 111.52 C 199.33 120.87 194.72 129.77 188.74 137.66 C 186.69 139.97 187.72 143.26 187.49 146.05 C 187.72 149.94 186.85 154.02 188.27 157.75 C 189.43 160.76 192.20 162.67 194.99 164.02 C 207.45 170.21 219.89 176.46 232.34 182.67 C 244.42 188.26 253.00 200.60 253.85 213.91 C 254.19 220.60 253.91 227.30 254.00 234.00 C 190.08 234.00 126.16 234.01 62.25 233.99 C 62.66 224.05 61.01 213.77 64.19 204.13 C 67.11 195.39 73.26 187.74 81.32 183.24 C 93.77 176.37 106.27 169.59 118.73 162.74 C 121.94 161.04 124.40 157.79 124.63 154.10 C 124.94 149.22 124.68 144.32 124.73 139.44 C 118.64 131.12 113.76 121.84 110.94 111.90 C 110.30 108.41 106.83 106.58 105.55 103.41 C 103.42 99.27 104.07 94.49 104.00 90.02 C 104.16 82.60 102.64 74.26 107.97 68.16 C 108.04 59.45 107.97 50.74 108.00 42.03 C 108.10 31.19 113.26 20.40 122.00 13.90 Z" />
<path fill="#6b6b6b" opacity="1.00" d=" M 62.04 37.00 C 74.87 32.07 89.40 32.11 102.44 36.25 C 101.45 46.14 102.37 56.11 101.90 66.03 C 101.18 68.16 99.84 70.03 99.12 72.17 C 97.45 76.61 98.10 81.43 98.00 86.06 C 98.22 92.68 97.00 99.75 100.19 105.89 C 101.45 109.11 104.64 111.18 105.53 114.58 C 108.40 124.15 113.04 133.11 118.76 141.28 C 118.65 145.49 118.94 149.72 118.65 153.93 C 118.52 155.66 117.13 156.92 115.69 157.67 C 103.41 164.42 91.10 171.09 78.83 177.85 C 66.13 184.79 57.44 198.40 56.43 212.84 C 56.02 219.88 56.35 226.94 56.25 234.00 C 38.83 234.00 21.42 234.00 4.00 234.00 C 4.38 224.24 2.61 213.95 6.72 204.73 C 9.29 198.82 13.55 193.60 19.01 190.15 C 29.10 183.87 39.13 177.50 49.20 171.19 C 51.76 169.74 53.59 167.03 53.71 164.06 C 53.87 160.12 53.69 156.18 53.76 152.25 C 47.66 145.51 42.46 137.78 39.62 129.09 C 38.57 124.66 33.93 122.11 33.46 117.40 C 32.95 111.60 33.38 105.75 33.24 99.93 C 32.99 96.14 34.99 92.79 37.22 89.91 C 37.69 80.67 36.01 71.10 39.14 62.17 C 42.58 50.95 51.02 41.27 62.04 37.00 Z" />
</g>
</svg>
